<svg width="14" height="14" viewBox="0 0 14 14" fill="none" xmlns="http://www.w3.org/2000/svg">
<path fill-rule="evenodd" clip-rule="evenodd" d="M0.911221 0.911221C0 1.82245 0 3.28904 0 6.22222V12.1686C0 12.7773 0 13.0817 0.0804689 13.2445C0.253167 13.5941 0.657961 13.7618 1.02723 13.6368C1.19929 13.5784 1.41451 13.3633 1.84492 12.9329H1.84493L1.84494 12.9328C2.19396 12.5838 2.36847 12.4093 2.56077 12.2684C2.96376 11.973 3.43195 11.7791 3.92573 11.703C4.16136 11.6667 4.40816 11.6667 4.90174 11.6667H8.16667C10.7236 11.6667 12.002 11.6667 12.8626 10.9604C13.0201 10.8312 13.1645 10.6867 13.2938 10.5292C14 9.66871 14 8.39028 14 5.83333C14 3.2764 14 1.99794 13.2938 1.13745C13.1645 0.979914 13.0201 0.835473 12.8626 0.706191C12.002 0 10.7236 0 8.16667 0H6.22222C3.28904 0 1.82245 0 0.911221 0.911221ZM3.5 7C4.14433 7 4.66667 6.47764 4.66667 5.83333C4.66667 5.18902 4.14433 4.66667 3.5 4.66667C2.85567 4.66667 2.33333 5.18902 2.33333 5.83333C2.33333 6.47764 2.85567 7 3.5 7ZM8.16667 5.83333C8.16667 6.47764 7.64431 7 7 7C6.35569 7 5.83333 6.47764 5.83333 5.83333C5.83333 5.18902 6.35569 4.66667 7 4.66667C7.64431 4.66667 8.16667 5.18902 8.16667 5.83333ZM10.5 7C11.1443 7 11.6667 6.47764 11.6667 5.83333C11.6667 5.18902 11.1443 4.66667 10.5 4.66667C9.85569 4.66667 9.33333 5.18902 9.33333 5.83333C9.33333 6.47764 9.85569 7 10.5 7Z" fill="#96A7AF"/>
</svg>
