<svg width="32" height="32" viewBox="0 0 32 32" fill="none" xmlns="http://www.w3.org/2000/svg">
<path d="M27.044 13.808H15.9414V18.4093H22.3307C21.736 21.3333 19.2467 23.0133 15.9414 23.0133C15.0165 23.0149 14.1004 22.8339 13.2456 22.4806C12.3908 22.1274 11.6142 21.6089 10.9603 20.9548C10.3063 20.3008 9.78796 19.524 9.43487 18.6692C9.08178 17.8144 8.90093 16.8982 8.90268 15.9733C8.9011 15.0486 9.08209 14.1326 9.43525 13.2779C9.78842 12.4232 10.3068 11.6466 10.9607 10.9927C11.6147 10.3388 12.3912 9.82041 13.2459 9.46724C14.1006 9.11407 15.0166 8.93309 15.9414 8.93467C17.62 8.93467 19.1374 9.53067 20.328 10.5053L23.7947 7.04001C21.6827 5.19867 18.9747 4.06267 15.9414 4.06267C14.3758 4.0581 12.8247 4.36309 11.3774 4.9601C9.93012 5.55711 8.61514 6.43437 7.50809 7.54141C6.40105 8.64846 5.52379 9.96344 4.92678 11.4107C4.32976 12.858 4.02478 14.4091 4.02935 15.9747C4.0246 17.5403 4.32947 19.0914 4.92642 20.5388C5.52337 21.9862 6.40062 23.3012 7.5077 24.4083C8.61478 25.5154 9.92983 26.3927 11.3772 26.9896C12.8246 27.5866 14.3757 27.8914 15.9414 27.8867C21.8974 27.8867 27.3134 23.5547 27.3134 15.9747C27.3134 15.2707 27.2054 14.512 27.044 13.808Z" fill="white"/>
</svg>
