<svg width="20" height="20" viewBox="0 0 20 20" fill="none" xmlns="http://www.w3.org/2000/svg">
<path d="M7.30413 6.75804C7.36614 6.63669 7.46402 6.53636 7.58506 6.47007C7.70611 6.40377 7.84473 6.37456 7.98296 6.38624C8.12119 6.39791 8.25264 6.44992 8.36027 6.53553C8.46789 6.62113 8.54673 6.73638 8.58654 6.86633L10.1614 12L11.4594 9.46531C11.5169 9.35291 11.6053 9.25838 11.7147 9.19231C11.824 9.12624 11.95 9.09125 12.0786 9.09125C12.2071 9.09125 12.3331 9.12624 12.4425 9.19231C12.5518 9.25838 12.6402 9.35291 12.6977 9.46531L13.8893 11.7986H18.0757C18.699 10.5423 19.0152 9.16151 18.9994 7.76523C18.9722 5.1379 16.8162 3 14.1934 3C12.1127 3 10.7321 4.24958 10 5.15736C9.26971 4.24831 7.88736 3 5.80668 3C3.18388 3 1.02792 5.1379 1.00066 7.76523C0.989477 8.67249 1.11976 9.57612 1.38703 10.445H5.41858L7.30413 6.75804Z" fill="#96A7AF"/>
<path d="M12.6608 13.1303L11.9134 11.5405L10.4901 14.5682C10.4339 14.6875 10.3476 14.7879 10.2408 14.8581C10.134 14.9282 10.011 14.9654 9.88551 14.9654C9.86664 14.9654 9.8472 14.9645 9.82721 14.9627C9.69191 14.9507 9.56313 14.8957 9.45763 14.8049C9.35214 14.714 9.27482 14.5914 9.23574 14.4531L7.69793 9L6.4305 11.6924C6.37463 11.8112 6.28892 11.9112 6.18288 11.9813C6.07683 12.0514 5.9546 12.0889 5.82974 12.0896H2C2.39431 12.967 2.91917 13.8307 3.57457 14.6805C4.36755 15.7086 5.80524 17.3522 9.12548 19.7494C9.34938 19.9127 9.61448 20 9.88593 20C10.1574 20 10.4225 19.9127 10.6464 19.7494C13.9666 17.3522 15.4043 15.7086 16.1973 14.6805C16.4829 14.3108 16.7508 13.9259 17 13.5275H13.2653C13.1398 13.5275 13.0168 13.4904 12.91 13.4202C12.8032 13.35 12.7169 13.2497 12.6608 13.1303V13.1303Z" fill="#96A7AF"/>
<path d="M19.1367 12H17.9847C17.6977 12.3464 17.3686 12.6806 17 13H19.1367C19.3657 13 19.5852 12.9473 19.7471 12.8536C19.909 12.7598 20 12.6326 20 12.5C20 12.3674 19.909 12.2402 19.7471 12.1464C19.5852 12.0527 19.3657 12 19.1367 12Z" fill="#96A7AF"/>
<path d="M0.85676 11C0.629533 11 0.411613 11.0527 0.250939 11.1464C0.0902655 11.2402 0 11.3674 0 11.5C0 11.6326 0.0902655 11.7598 0.250939 11.8536C0.411613 11.9473 0.629533 12 0.85676 12H2C1.73505 11.677 1.51271 11.3427 1.33494 11H0.85676Z" fill="#96A7AF"/>
</svg>
