<svg width="19" height="19" viewBox="0 0 19 19" fill="none" xmlns="http://www.w3.org/2000/svg">
<path d="M11.875 19C11.4792 19 11.1637 18.9691 10.9287 18.9072C10.6937 18.8454 10.5391 18.7773 10.4648 18.7031C10.3906 18.6289 10.2762 18.5609 10.1216 18.499C9.96696 18.4372 9.75977 18.4062 9.5 18.4062C9.24023 18.4062 9.03304 18.4372 8.87842 18.499C8.7238 18.5609 8.60938 18.6289 8.53516 18.7031C8.46094 18.7773 8.30632 18.8454 8.07129 18.9072C7.83626 18.9691 7.52083 19 7.125 19C6.65495 19 6.10449 18.8206 5.47363 18.4619C4.84277 18.1032 4.21191 17.6053 3.58105 16.9683C2.9502 16.3312 2.36572 15.62 1.82764 14.8345C1.28955 14.049 0.850423 13.1831 0.510254 12.2368C0.170085 11.2905 0 10.3783 0 9.5C0 8.65885 0.120605 7.9012 0.361816 7.22705C0.603027 6.5529 0.918457 5.99935 1.30811 5.56641C1.69775 5.13346 2.16162 4.76855 2.69971 4.47168C3.23779 4.1748 3.78516 3.95833 4.3418 3.82227C4.89844 3.6862 5.47982 3.60579 6.08594 3.58105C5.33138 3.13574 4.84896 2.85124 4.63867 2.72754C4.15625 2.48014 3.7264 2.13688 3.34912 1.69775C2.97184 1.25863 2.71517 0.878255 2.5791 0.556641L2.375 0.0927734C2.43685 0.0804036 2.51416 0.0680339 2.60693 0.0556641C2.69971 0.0432943 2.89144 0.0309245 3.18213 0.0185547C3.47282 0.0061849 3.75423 0.00927734 4.02637 0.027832C4.2985 0.0463867 4.61702 0.102051 4.98193 0.194824C5.34684 0.287598 5.68392 0.414388 5.99316 0.575195C6.5498 0.87207 7.19613 1.33903 7.93213 1.97607C8.66813 2.61312 9.24023 3.20378 9.64844 3.74805C9.80924 2.43685 10.1556 1.38542 10.6875 0.59375C10.7122 0.556641 10.7524 0.491699 10.8081 0.398926C10.8638 0.306152 10.9071 0.238118 10.938 0.194824C10.9689 0.15153 11.0153 0.108236 11.0771 0.0649414C11.139 0.0216471 11.207 0 11.2812 0C11.4421 0 11.5812 0.0587565 11.6987 0.17627C11.8162 0.293783 11.875 0.432943 11.875 0.59375C11.875 0.828776 11.5596 1.97298 10.9287 4.02637C11.3617 3.71712 11.875 3.5625 12.4688 3.5625C13.0996 3.5625 13.7088 3.61816 14.2964 3.72949C14.884 3.84082 15.4684 4.04183 16.0498 4.33252C16.6312 4.62321 17.1353 4.98503 17.562 5.41797C17.9888 5.85091 18.3351 6.41992 18.6011 7.125C18.867 7.83008 19 8.62174 19 9.5C19 10.3783 18.8299 11.2905 18.4897 12.2368C18.1496 13.1831 17.7104 14.049 17.1724 14.8345C16.6343 15.62 16.0498 16.3312 15.4189 16.9683C14.7881 17.6053 14.1572 18.1032 13.5264 18.4619C12.8955 18.8206 12.3451 19 11.875 19ZM5.9375 15.4375C5.9375 15.0417 5.73958 14.4479 5.34375 13.6562C4.94792 12.8646 4.75 12.2708 4.75 11.875C4.75 11.4421 4.94792 10.7988 5.34375 9.94531C5.73958 9.0918 5.9375 8.54753 5.9375 8.3125V8.20117C5.9375 7.9043 5.93441 7.67855 5.92822 7.52393C5.92204 7.3693 5.90039 7.17139 5.86328 6.93018C5.82617 6.68896 5.76742 6.5096 5.68701 6.39209C5.60661 6.27458 5.4891 6.16943 5.33447 6.07666C5.17985 5.98389 4.98503 5.9375 4.75 5.9375C4.36654 5.9375 3.98926 6.16016 3.61816 6.60547C3.24707 7.05078 2.9471 7.59196 2.71826 8.229C2.48942 8.86605 2.375 9.46908 2.375 10.0381C2.375 10.7803 2.53271 11.5688 2.84814 12.4038C3.16357 13.2388 3.52848 13.9531 3.94287 14.5469C4.35726 15.1406 4.75309 15.6354 5.13037 16.0312C5.50765 16.4271 5.77669 16.625 5.9375 16.625C6.11068 16.625 6.19727 16.591 6.19727 16.5229C6.19727 16.4549 6.15397 16.3096 6.06738 16.0869C5.98079 15.8643 5.9375 15.6478 5.9375 15.4375Z" fill="#96A7AF"/>
</svg>
