<svg width="22" height="22" viewBox="0 0 22 22" fill="none" xmlns="http://www.w3.org/2000/svg">
<path d="M12.8333 11C11.8296 11 11 10.1704 11 9.16667C11 8.84217 11.0944 8.54058 11.2457 8.27475C11.1632 8.26833 11.0843 8.25 11 8.25C10.2721 8.2548 9.57545 8.54608 9.06077 9.06077C8.54608 9.57545 8.2548 10.2721 8.25 11C8.25 12.5052 9.49483 13.75 11 13.75C12.5043 13.75 13.75 12.5052 13.75 11C13.75 10.9157 13.7317 10.8368 13.7252 10.7543C13.4594 10.9056 13.1578 11 12.8333 11Z" fill="#96A7AF"/>
<path d="M10.9999 4.58325C4.00294 4.58325 1.90011 10.6488 1.88086 10.7103L1.78369 10.9999L1.87994 11.2896C1.90011 11.351 4.00294 17.4166 10.9999 17.4166C17.9968 17.4166 20.0996 11.351 20.1189 11.2896L20.216 10.9999L20.1198 10.7103C20.0996 10.6488 17.9968 4.58325 10.9999 4.58325ZM10.9999 15.5833C6.09477 15.5833 4.19452 12.0578 3.73436 10.9999C4.19636 9.93842 6.09752 6.41659 10.9999 6.41659C15.9049 6.41659 17.8052 9.94209 18.2654 10.9999C17.8034 12.0614 15.9022 15.5833 10.9999 15.5833V15.5833Z" fill="#96A7AF"/>
</svg>
