<svg width="22" height="22" viewBox="0 0 22 22" fill="none" xmlns="http://www.w3.org/2000/svg">
<path d="M3.84799 10.47C3.55527 10.0017 2.93832 9.85929 2.46999 10.152C2.00165 10.4447 1.85929 11.0617 2.15201 11.53L3.84799 10.47ZM4.40639 14.3795C4.80009 14.7668 5.43323 14.7617 5.82056 14.368C6.20788 13.9743 6.20272 13.3411 5.80902 12.9538L4.40639 14.3795ZM19.848 11.53C20.1407 11.0616 19.9983 10.4447 19.53 10.152C19.0616 9.85929 18.4447 10.0017 18.152 10.47L19.848 11.53ZM16.1912 12.9538C15.7975 13.3411 15.7923 13.9742 16.1797 14.368C16.567 14.7617 17.2001 14.7669 17.5938 14.3795L16.1912 12.9538ZM17.6316 12.9931C17.2596 12.5849 16.6271 12.5556 16.2189 12.9276C15.8107 13.2996 15.7814 13.9321 16.1534 14.3403L17.6316 12.9931ZM18.2609 16.6526C18.6329 17.0608 19.2654 17.0901 19.6736 16.7181C20.0818 16.3461 20.1111 15.7136 19.7391 15.3054L18.2609 16.6526ZM17.5939 14.3795C17.9875 13.9922 17.9927 13.359 17.6054 12.9653C17.2181 12.5717 16.5849 12.5665 16.1912 12.9538L17.5939 14.3795ZM12.9156 15.0272C12.39 15.1965 12.1011 15.7599 12.2704 16.2856C12.4397 16.8113 13.0031 17.1002 13.5288 16.9309L12.9156 15.0272ZM5.84676 14.3403C6.21881 13.9321 6.18952 13.2997 5.78135 12.9276C5.37318 12.5556 4.7407 12.5849 4.36865 12.993L5.84676 14.3403ZM2.26095 15.3054C1.8889 15.7135 1.91819 16.346 2.32635 16.7181C2.73452 17.0901 3.36701 17.0608 3.73905 16.6527L2.26095 15.3054ZM5.80899 12.9538C5.41528 12.5665 4.78214 12.5717 4.39483 12.9654C4.00752 13.3591 4.01271 13.9922 4.40642 14.3795L5.80899 12.9538ZM8.47155 16.9309C8.99724 17.1002 9.56065 16.8113 9.72997 16.2856C9.89929 15.7599 9.61039 15.1965 9.0847 15.0272L8.47155 16.9309ZM14.1816 15.6967C14.0257 15.1669 13.4698 14.8638 12.9399 15.0197C12.4101 15.1756 12.107 15.7315 12.2629 16.2613L14.1816 15.6967ZM13.1518 19.2823C13.3077 19.8121 13.8636 20.1152 14.3934 19.9593C14.9232 19.8034 15.2263 19.2476 15.0704 18.7177L13.1518 19.2823ZM13.5289 16.9308C14.0546 16.7615 14.3434 16.198 14.174 15.6724C14.0047 15.1467 13.4412 14.8578 12.9156 15.0272L13.5289 16.9308ZM9.08478 15.0272C8.5591 14.8578 7.99566 15.1467 7.8263 15.6724C7.65694 16.198 7.94579 16.7615 8.47147 16.9308L9.08478 15.0272ZM9.73743 16.2614C9.89338 15.7316 9.59031 15.1757 9.0605 15.0197C8.53069 14.8638 7.97477 15.1668 7.81882 15.6966L9.73743 16.2614ZM6.92958 18.7176C6.77363 19.2474 7.07671 19.8034 7.60651 19.9593C8.13632 20.1153 8.69224 19.8122 8.84819 19.2824L6.92958 18.7176ZM2.15201 11.53C2.83992 12.6306 3.59613 13.5824 4.40639 14.3795L5.80902 12.9538C5.12217 12.2781 4.46191 11.4522 3.84799 10.47L2.15201 11.53ZM18.152 10.47C17.5381 11.4523 16.878 12.2782 16.1912 12.9538L17.5938 14.3795C18.4041 13.5824 19.1602 12.6305 19.848 11.53L18.152 10.47ZM16.1534 14.3403L18.2609 16.6526L19.7391 15.3054L17.6316 12.9931L16.1534 14.3403ZM16.1912 12.9538C15.1379 13.9901 14.0255 14.6697 12.9156 15.0272L13.5288 16.9309C14.9756 16.4649 16.3504 15.6028 17.5939 14.3795L16.1912 12.9538ZM4.36865 12.993L2.26095 15.3054L3.73905 16.6527L5.84676 14.3403L4.36865 12.993ZM4.40642 14.3795C5.64992 15.6028 7.02472 16.4649 8.47155 16.9309L9.0847 15.0272C7.97487 14.6697 6.8624 13.9901 5.80899 12.9538L4.40642 14.3795ZM12.2629 16.2613L13.1518 19.2823L15.0704 18.7177L14.1816 15.6967L12.2629 16.2613ZM12.9156 15.0272C11.6488 15.4353 10.3515 15.4353 9.08478 15.0272L8.47147 16.9308C10.137 17.4674 11.8634 17.4674 13.5289 16.9308L12.9156 15.0272ZM7.81882 15.6966L6.92958 18.7176L8.84819 19.2824L9.73743 16.2614L7.81882 15.6966Z" fill="#96A7AF"/>
</svg>
