<svg width="38" height="48" viewBox="0 0 38 48" fill="none" xmlns="http://www.w3.org/2000/svg">
<rect width="38" height="48" rx="12" fill="#623A42"/>
<path fill-rule="evenodd" clip-rule="evenodd" d="M19 15C16.442 15 14.3684 17.0969 14.3684 19.6835V21.8138C13.3874 21.8207 12.8263 21.8605 12.3794 22.0908C11.904 22.3357 11.5176 22.7265 11.2754 23.2071C11 23.7537 11 24.469 11 25.8997V28.795C11 30.2257 11 30.941 11.2754 31.4875C11.5176 31.9682 11.904 32.359 12.3794 32.6039C12.9198 32.8824 13.6272 32.8824 15.0421 32.8824H22.9579C24.3728 32.8824 25.0802 32.8824 25.6206 32.6039C26.096 32.359 26.4824 31.9682 26.7246 31.4875C27 30.941 27 30.2257 27 28.795V25.8997C27 24.469 27 23.7537 26.7246 23.2071C26.4824 22.7265 26.096 22.3357 25.6206 22.0908C25.1737 21.8605 24.6125 21.8207 23.6316 21.8138V19.6835C23.6316 17.0969 21.558 15 19 15ZM21.9474 21.8123V19.6835C21.9474 18.0374 20.6278 16.7031 19 16.7031C17.3722 16.7031 16.0526 18.0374 16.0526 19.6835V21.8123H21.9474ZM19.8421 27.971C20.3455 27.6765 20.6842 27.1262 20.6842 26.4958C20.6842 25.5552 19.9302 24.7927 19 24.7927C18.0698 24.7927 17.3158 25.5552 17.3158 26.4958C17.3158 27.1262 17.6545 27.6765 18.1579 27.971V29.4762C18.1579 29.9465 18.5349 30.3277 19 30.3277C19.4651 30.3277 19.8421 29.9465 19.8421 29.4762V27.971Z" fill="#FF575F"/>
</svg>
