<svg width="32" height="32" viewBox="0 0 32 32" fill="none" xmlns="http://www.w3.org/2000/svg">
<path d="M28.7721 9.13997C28.9587 8.51997 28.7721 8.06531 27.8894 8.06531H24.9654C24.2214 8.06531 23.8814 8.45864 23.6947 8.89064C23.6947 8.89064 22.2081 12.516 20.1014 14.8666C19.4214 15.5506 19.1107 15.7666 18.7401 15.7666C18.5547 15.7666 18.2854 15.5506 18.2854 14.9306V9.13997C18.2854 8.39597 18.0707 8.06531 17.4507 8.06531H12.8561C12.3921 8.06531 12.1121 8.40931 12.1121 8.73731C12.1121 9.44131 13.1654 9.60397 13.2734 11.588V15.892C13.2734 16.8346 13.1041 17.0066 12.7307 17.0066C11.7401 17.0066 9.32941 13.368 7.89875 9.20264C7.62008 8.39331 7.33875 8.06664 6.59208 8.06664H3.66941C2.83341 8.06664 2.66675 8.45997 2.66675 8.89197C2.66675 9.66797 3.65741 13.508 7.28141 18.5866C9.69741 22.0546 13.0987 23.9346 16.1974 23.9346C18.0547 23.9346 18.2841 23.5173 18.2841 22.7973V20.176C18.2841 19.3413 18.4614 19.1733 19.0494 19.1733C19.4814 19.1733 20.2254 19.392 21.9601 21.0626C23.9414 23.044 24.2694 23.9333 25.3827 23.9333H28.3054C29.1401 23.9333 29.5574 23.516 29.3174 22.692C29.0547 21.872 28.1081 20.6786 26.8521 19.2666C26.1694 18.4613 25.1494 17.5946 24.8387 17.1613C24.4054 16.6026 24.5307 16.356 24.8387 15.86C24.8401 15.8613 28.4014 10.8453 28.7721 9.13997Z" fill="white"/>
</svg>
